<svg xmlns="http://www.w3.org/2000/svg" viewBox="0 0 1124.64 180"><defs><style>.cls-1{fill:#fff;}</style></defs><title>Asset 2</title><g id="Layer_2" data-name="Layer 2"><g id="Слой_1" data-name="Слой 1"><path id="path0_fill" data-name="path0 fill" class="cls-1" d="M311.71,101.63a25.59,25.59,0,0,1-2.08,7.46,19.34,19.34,0,0,1-4.09,5.82,17.86,17.86,0,0,1-5.93,3.77A20.91,20.91,0,0,1,292,120a20.46,20.46,0,0,1-6.58-1,18.77,18.77,0,0,1-5.25-2.85,19.41,19.41,0,0,1-4-4.25,27.25,27.25,0,0,1-2.77-5.33,34.27,34.27,0,0,1-1.64-6.06,42.74,42.74,0,0,1-.56-6.42v-.53h7.45V86.44H271.2v-.49a42.73,42.73,0,0,1,.56-6.42,34.27,34.27,0,0,1,1.64-6.06,27.24,27.24,0,0,1,2.77-5.33,19,19,0,0,1,4-4.29A18,18,0,0,1,285.4,61,19.52,19.52,0,0,1,292,60a21.14,21.14,0,0,1,7.82,1.36,16.8,16.8,0,0,1,5.94,3.81,18.26,18.26,0,0,1,4,5.9,26.14,26.14,0,0,1,2,7.62h-7.42A21.84,21.84,0,0,0,303,73.76a13.62,13.62,0,0,0-2.36-4A10.23,10.23,0,0,0,297,67.06a13.09,13.09,0,0,0-9.75-.12,10.82,10.82,0,0,0-3.49,2.33,14.09,14.09,0,0,0-2.45,3.45,23.57,23.57,0,0,0-1.56,4.17,31.6,31.6,0,0,0-.88,4.53,42.35,42.35,0,0,0-.24,4.45v8.22a43.5,43.5,0,0,0,.24,4.49,33.08,33.08,0,0,0,.88,4.53,23.57,23.57,0,0,0,1.56,4.17,13.45,13.45,0,0,0,2.45,3.49,11.36,11.36,0,0,0,3.49,2.37A12.06,12.06,0,0,0,292,114a12.65,12.65,0,0,0,5.05-.92,10.27,10.27,0,0,0,3.65-2.57,13.2,13.2,0,0,0,2.36-3.93,21.84,21.84,0,0,0,1.25-4.93Zm71.91-6.26H364.57V60.8H381.7A28.68,28.68,0,0,1,389.4,62a18.29,18.29,0,0,1,6.3,3.25,14.8,14.8,0,0,1,4.25,5.45,17.47,17.47,0,0,1,1.56,7.66,15.76,15.76,0,0,1-3.09,9.51A16.69,16.69,0,0,1,395,91.24a22.38,22.38,0,0,1-4.41,2.53L403,118.72l0,.48h-7.82Zm-19.05,7.12h7.38v16.7h-7.38Zm7.38-13.22h9.95a15.8,15.8,0,0,0,4.69-.76,11.78,11.78,0,0,0,3.85-2.17,10,10,0,0,0,2.65-3.41,10.89,10.89,0,0,0,1-4.69,12,12,0,0,0-.92-4.89,9.58,9.58,0,0,0-2.57-3.53,10.83,10.83,0,0,0-3.93-2.17,16.86,16.86,0,0,0-4.93-.76h-9.75ZM485.21,60.8,471.9,90.12,458.62,60.8h-8.46l18.17,36.62h7.14L493.63,60.8Zm-16.85,43.74.08,14.66h6.9l.08-14.66Zm84.83-8.21V119.2h-7.42V60.8h7.42V96.33Zm7.46-29.43h4.06a14.14,14.14,0,0,1,4.73.84A10.74,10.74,0,0,1,573.21,70a10.16,10.16,0,0,1,2.49,3.61,11.87,11.87,0,0,1,.92,4.77,11.58,11.58,0,0,1-.92,4.73,9.93,9.93,0,0,1-2.49,3.49,11.61,11.61,0,0,1-3.77,2.25,14.9,14.9,0,0,1-4.73.8h-4.06v6.1h4.06a24.09,24.09,0,0,0,7.42-1.2,18.69,18.69,0,0,0,6.18-3.37,15.76,15.76,0,0,0,4.17-5.41,18.55,18.55,0,0,0,0-14.92,15.65,15.65,0,0,0-4.17-5.45A18.68,18.68,0,0,0,572.12,62a24.93,24.93,0,0,0-7.42-1.24h-4.06Zm96.41.24h17.82V60.8H631.56v6.34h25.49Zm-7.45,52.06V74.26h7.23V119.2ZM758,92.21H741.08v-6.3H758Zm-24.38,20.7V67.14h28.07V60.8h-35.5v58.4h35.86v-6.3ZM824,95.37h11.65L847.1,119.2h7.82l0-.48L842.57,93.77A22.32,22.32,0,0,0,847,91.24a16.75,16.75,0,0,0,3.45-3.41,15.24,15.24,0,0,0,2.25-4.29,15.47,15.47,0,0,0,.84-5.21,17.47,17.47,0,0,0-1.57-7.66,14.76,14.76,0,0,0-4.25-5.45A18.26,18.26,0,0,0,841.4,62a28.66,28.66,0,0,0-7.7-1.16H816.58V95.37Zm0,7.12h-7.38v16.7H824Zm9.95-13.22H824V66.9h9.74a16.86,16.86,0,0,1,4.94.76,10.79,10.79,0,0,1,3.93,2.17,9.58,9.58,0,0,1,2.56,3.53,12,12,0,0,1,.92,4.89,10.89,10.89,0,0,1-1,4.69,10,10,0,0,1-2.65,3.41,11.82,11.82,0,0,1-3.85,2.17A15.8,15.8,0,0,1,833.9,89.28ZM906.7,60.8H928v58.4h-7.62V67.26H906.7Zm127.14,39.55-.08-39.55h-7.18l-.12,39.55a18.35,18.35,0,0,1-.84,5,13.39,13.39,0,0,1-2.25,4.29,10.88,10.88,0,0,1-3.61,3,12,12,0,0,1-10.07,0,11.31,11.31,0,0,1-3.65-3,14,14,0,0,1-2.25-4.25,17.45,17.45,0,0,1-.8-5l0-6.79h-7.26v6.79a21.65,21.65,0,0,0,1.44,7.7,19.74,19.74,0,0,0,3.89,6.26,18,18,0,0,0,6,4.17,19.13,19.13,0,0,0,7.74,1.52,18.43,18.43,0,0,0,13.68-5.74,19.42,19.42,0,0,0,3.93-6.26A21.94,21.94,0,0,0,1033.84,100.35Zm-31-39.55.11,25.64h-7.21l.05-25.64Zm92.81,0,9.51,29.2,10.27-29.2h9.23V86.44h-7l.37-14.93L1107.23,103H1103l-9.91-30.6.6,23.54v23.3h-7.22V60.8Zm21.84,32.76h7.16V119.2h-7.22V95.9Z"/><path id="path1_fill" data-name="path1 fill" class="cls-1" d="M137.06,34l-4.81,4.81A65.68,65.68,0,0,0,90,23.7,66.45,66.45,0,0,0,23.7,85.53H16.83A73.07,73.07,0,0,1,90,16.83,74.16,74.16,0,0,1,137.06,34ZM90,41.22a49.3,49.3,0,0,1,39.85,20.27l4.81-4.81A56,56,0,0,0,90,34.35C59.08,34.35,34,59.43,34,90a55.94,55.94,0,0,0,100.65,33.66l-4.81-4.81A49.07,49.07,0,1,1,90,41.22Zm52.56-2.06L137.75,44a59.66,59.66,0,0,1,4.47,5.15L147,44.31A59.71,59.71,0,0,0,142.56,39.16ZM16.49,94.81a73.24,73.24,0,0,0,120.23,51.53l-4.81-4.81a65.68,65.68,0,0,1-42.25,15.11,66.45,66.45,0,0,1-66.3-61.83Zm121.26,41.56,4.81,4.81A59.71,59.71,0,0,0,147,136l-4.81-4.81A59.66,59.66,0,0,1,137.75,136.37ZM90,173.13C44.31,173.13,6.87,135.69,6.87,90S44.31,6.87,90,6.87A82.5,82.5,0,0,1,153.89,37.1l4.81-4.81A89.89,89.89,0,1,0,90,180a88.72,88.72,0,0,0,68.7-32.29l-4.81-4.81A81.43,81.43,0,0,1,90,173.13Z"/></g></g></svg>